HIERARCHY
ROOT Hips
{
	OFFSET 0.0000 0.0000 0.0000
	CHANNELS 6 Xposition Yposition Zposition Zrotation Xrotation Yrotation
	JOINT Spine1
	{
		OFFSET -0.0137 5.0038 -0.0537
		CHANNELS 3 Zrotation Xrotation Yrotation
		JOINT Spine2
		{
			OFFSET -0.0000 7.1253 -0.0298
			CHANNELS 3 Zrotation Xrotation Yrotation
			JOINT Chest
			{
				OFFSET -0.0000 7.5501 -0.8160
				CHANNELS 3 Zrotation Xrotation Yrotation
				JOINT Neck1
				{
					OFFSET -0.1817 26.3113 -0.5533
					CHANNELS 3 Zrotation Xrotation Yrotation
					JOINT Neck2
					{
						OFFSET -0.0000 7.7094 2.3026
						CHANNELS 3 Zrotation Xrotation Yrotation
						JOINT Head
						{
							OFFSET -0.0000 6.1289 1.9537
							CHANNELS 3 Zrotation Xrotation Yrotation
							JOINT Jaw
							{
								OFFSET 0.0026 0.4756 3.0949
								CHANNELS 3 Zrotation Xrotation Yrotation
								End Site
								{
									OFFSET 0.0 1.0 0.0
								}
							}
							JOINT LeftEye
							{
								OFFSET 3.2064 5.3802 7.5869
								CHANNELS 3 Zrotation Xrotation Yrotation
								End Site
								{
									OFFSET 0.0 1.0 0.0
								}
							}
							JOINT RightEye
							{
								OFFSET -3.2224 5.3619 7.5582
								CHANNELS 3 Zrotation Xrotation Yrotation
								End Site
								{
									OFFSET 0.0 1.0 0.0
								}
							}
						}
					}
				}
				JOINT LeftShoulder
				{
					OFFSET 1.6217 23.2372 5.1134
					CHANNELS 3 Zrotation Xrotation Yrotation
					JOINT LeftArm
					{
						OFFSET 14.9198 0.0000 -5.5023
						CHANNELS 3 Zrotation Xrotation Yrotation
						JOINT LeftForeArm
						{
							OFFSET 28.7393 0.0000 -0.0026
							CHANNELS 3 Zrotation Xrotation Yrotation
							JOINT LeftHand
							{
								OFFSET 27.0940 -0.0000 0.0026
								CHANNELS 3 Zrotation Xrotation Yrotation
								JOINT LeftHandThumbEnd
								{
									OFFSET 12.2686 -3.2202 4.8331
									CHANNELS 3 Zrotation Xrotation Yrotation
									End Site
									{
										OFFSET 0.0 1.0 0.0
									}
								}
								JOINT LeftHandMiddleEnd
								{
									OFFSET 19.0120 -0.3129 -0.0340
									CHANNELS 3 Zrotation Xrotation Yrotation
									End Site
									{
										OFFSET 0.0 1.0 0.0
									}
								}
							}
						}
					}
				}
				JOINT RightShoulder
				{
					OFFSET -1.3801 23.1803 5.2142
					CHANNELS 3 Zrotation Xrotation Yrotation
					JOINT RightArm
					{
						OFFSET -15.0372 0.0000 -5.5456
						CHANNELS 3 Zrotation Xrotation Yrotation
						JOINT RightForeArm
						{
							OFFSET -28.7366 0.0000 -0.0026
							CHANNELS 3 Zrotation Xrotation Yrotation
							JOINT RightHand
							{
								OFFSET -27.1336 -0.0000 0.0026
								CHANNELS 3 Zrotation Xrotation Yrotation
								JOINT RightHandThumbEnd
								{
									OFFSET -12.2642 -3.2115 4.8040
									CHANNELS 3 Zrotation Xrotation Yrotation
									End Site
									{
										OFFSET 0.0 1.0 0.0
									}
								}
								JOINT RightHandMiddleEnd
								{
									OFFSET -19.0006 -0.3066 -0.0316
									CHANNELS 3 Zrotation Xrotation Yrotation
									End Site
									{
										OFFSET 0.0 1.0 0.0
									}
								}
							}
						}
					}
				}
			}
		}
	}
	JOINT LeftLeg
	{
		OFFSET 10.0432 -8.4345 2.5957
		CHANNELS 3 Zrotation Xrotation Yrotation
		JOINT LeftShin
		{
			OFFSET -0.0000 -43.2218 -0.8029
			CHANNELS 3 Zrotation Xrotation Yrotation
			JOINT LeftFoot
			{
				OFFSET 0.0000 -42.1551 -3.4815
				CHANNELS 3 Zrotation Xrotation Yrotation
				JOINT LeftToeBase
				{
					OFFSET 0.0000 -5.0595 13.2315
					CHANNELS 3 Zrotation Xrotation Yrotation
					End Site
					{
						OFFSET 0.0 1.0 0.0
					}
				}
			}
		}
	}
	JOINT RightLeg
	{
		OFFSET -10.0473 -8.2953 2.6203
		CHANNELS 3 Zrotation Xrotation Yrotation
		JOINT RightShin
		{
			OFFSET 0.0000 -43.3622 -0.8056
			CHANNELS 3 Zrotation Xrotation Yrotation
			JOINT RightFoot
			{
				OFFSET 0.0000 -42.1174 -3.4784
				CHANNELS 3 Zrotation Xrotation Yrotation
				JOINT RightToeBase
				{
					OFFSET -0.0000 -5.0796 13.2842
					CHANNELS 3 Zrotation Xrotation Yrotation
					End Site
					{
						OFFSET 0.0 1.0 0.0
					}
				}
			}
		}
	}
}
MOTION
Frames: 11
Frame Time: 0.033333
0.0051 99.9648 -0.2697 -0.4872 -2.0152 0.8628 -0.2265 -1.3926 0.0240 -0.4775 -5.7477 -0.0377 -0.0719 13.1623 -2.3165 -0.1907 22.8254 3.4063 -0.5798 -3.7248 0.6937 0.3749 -6.7395 0.0275 0.0050 0.0215 0.0280 0.6818 -10.4933 -3.8005 -0.6725 -10.5065 3.8644 -17.6725 12.5985 -11.1729 -53.5155 6.3972 -24.4087 -0.0621 0.0857 -31.5976 -0.9538 -14.6564 4.4839 -15.8461 10.5653 15.5889 -60.3959 1.5078 2.5681 15.3555 12.2079 13.8538 57.6178 7.5211 25.7213 0.0344 -0.0199 38.0453 2.7024 -6.6016 -5.1132 15.4981 7.2102 -16.3100 49.8248 -3.6024 -5.5072 5.0234 -2.9028 7.9081 -0.0321 7.6909 -0.1207 -5.4349 -3.2812 0.3590 1.6506 0.1537 -1.9798 -3.2550 1.5631 -11.6728 0.0197 3.0113 -0.0730 4.3266 -2.7672 1.5957 -1.4280 -0.1283 1.0209
0.0145 99.9636 -0.2554 -0.4752 -2.0172 0.8552 -0.2297 -1.3801 0.0196 -0.4759 -5.7418 -0.0372 -0.0950 13.1479 -2.3395 -0.1914 22.8177 3.3919 -0.5707 -3.7285 0.6934 0.3294 -6.7047 0.0614 0.0053 0.0152 0.0273 0.6852 -10.5049 -3.8028 -0.6752 -10.5180 3.8648 -17.6728 12.6127 -11.1790 -53.5205 6.4464 -24.4349 -0.0302 0.0684 -31.5942 -0.9501 -14.7139 4.4658 -15.8382 10.5461 15.5721 -60.3624 1.4828 2.5737 15.3664 12.2049 13.8662 57.6224 7.5102 25.7593 0.0459 -0.0208 38.0591 2.7324 -6.6494 -5.1210 15.4884 7.2143 -16.2963 49.8181 -3.5958 -5.5181 5.0087 -2.8867 7.9522 -0.0347 7.6652 -0.1287 -5.4271 -3.2678 0.3413 1.6513 0.1800 -1.9647 -3.2758 1.5618 -11.6880 0.0237 3.0129 -0.0737 4.3425 -2.7798 1.6117 -1.4270 -0.1228 1.0271
0.0136 99.9512 -0.2513 -0.4723 -2.0159 0.8611 -0.2284 -1.3634 0.0097 -0.4716 -5.7276 -0.0447 -0.1066 13.1193 -2.3576 -0.1835 22.7635 3.3688 -0.5454 -3.7305 0.7098 0.2531 -6.6701 0.1123 0.0060 0.0110 0.0262 0.6855 -10.5056 -3.8056 -0.6740 -10.5233 3.8656 -17.6858 12.5992 -11.1806 -53.5252 6.5351 -24.4285 0.0212 0.0704 -31.6408 -0.9683 -14.8398 4.4635 -15.8152 10.5221 15.5487 -60.3313 1.4549 2.5765 15.3990 12.2087 13.9004 57.6075 7.4845 25.7380 0.0528 -0.0192 38.0707 2.7514 -6.7659 -5.1042 15.4887 7.2044 -16.2697 49.7843 -3.6102 -5.5056 5.0066 -2.8779 8.0048 -0.0369 7.6454 -0.1326 -5.4213 -3.2578 0.3066 1.6556 0.2003 -1.9422 -3.2870 1.5616 -11.6884 0.0252 3.0179 -0.0754 4.3565 -2.7940 1.5988 -1.4285 -0.1131 1.0362
-0.0017 99.9569 -0.2492 -0.4747 -2.0245 0.8901 -0.2222 -1.3353 0.0018 -0.4690 -5.7226 -0.0519 -0.1073 13.0988 -2.3826 -0.1725 22.7215 3.3300 -0.5176 -3.7345 0.7369 0.1745 -6.6857 0.1613 0.0091 0.0114 0.0189 0.6893 -10.5093 -3.8149 -0.6713 -10.5308 3.8572 -17.6791 12.6000 -11.1937 -53.5185 6.6234 -24.4131 0.0650 0.0737 -31.7715 -0.9747 -14.8582 4.4754 -15.7799 10.5239 15.5383 -60.3441 1.4469 2.5790 15.4273 12.2371 13.9510 57.5772 7.4989 25.7607 0.0166 -0.0166 38.1095 2.7623 -6.9814 -5.0911 15.4965 7.1948 -16.2534 49.7752 -3.6400 -5.5015 5.0057 -2.8744 8.0250 -0.0358 7.6362 -0.1293 -5.4105 -3.2506 0.2514 1.6589 0.2264 -1.9204 -3.2853 1.5746 -11.7064 0.0201 3.0151 -0.0702 4.3442 -2.8033 1.5978 -1.4290 -0.1135 1.0378
-0.0085 99.9626 -0.2319 -0.4802 -2.0306 0.9228 -0.2158 -1.3038 0.0115 -0.4750 -5.7127 -0.0628 -0.0980 13.0620 -2.4077 -0.1474 22.6801 3.3239 -0.5131 -3.7393 0.7478 0.1291 -6.7237 0.1692 0.0135 0.0132 0.0074 0.6938 -10.5031 -3.8291 -0.6667 -10.5278 3.8466 -17.6512 12.5845 -11.2048 -53.5040 6.7060 -24.3861 0.0678 0.0895 -31.8906 -0.9564 -14.7820 4.4785 -15.7269 10.5331 15.5399 -60.3218 1.4550 2.5880 15.4555 12.2433 13.9961 57.5579 7.5853 25.8942 -0.0367 0.0117 38.0865 2.7665 -7.2283 -5.0580 15.5005 7.1864 -16.2596 49.7522 -3.6741 -5.5061 5.0081 -2.8711 8.0366 -0.0347 7.6361 -0.1296 -5.3874 -3.2477 0.2123 1.6617 0.2246 -1.9107 -3.2790 1.5906 -11.7072 0.0131 3.0111 -0.0721 4.3066 -2.7922 1.5779 -1.4309 -0.1345 1.0333
0.0050 99.9760 -0.2229 -0.4847 -2.0373 0.9511 -0.2109 -1.2848 0.0217 -0.4820 -5.7038 -0.0718 -0.0742 13.0445 -2.4184 -0.1278 22.6552 3.3268 -0.5306 -3.7403 0.7406 0.1193 -6.7746 0.1326 0.0166 0.0154 -0.0036 0.6958 -10.5035 -3.8415 -0.6625 -10.5293 3.8359 -17.6259 12.5961 -11.2204 -53.4632 6.7273 -24.3649 0.0479 0.0906 -31.9678 -0.9083 -14.6597 4.4757 -15.7208 10.5635 15.5467 -60.3500 1.4801 2.5755 15.4628 12.2570 14.0284 57.5294 7.6648 26.0296 -0.0754 0.0264 38.0449 2.7791 -7.3624 -5.0066 15.4772 7.1760 -16.2643 49.7032 -3.6900 -5.5197 5.0182 -2.8626 8.0520 -0.0367 7.6446 -0.1329 -5.3544 -3.2558 0.1595 1.6631 0.2105 -1.9091 -3.2758 1.6129 -11.7033 0.0090 3.0076 -0.0689 4.2640 -2.7980 1.5490 -1.4323 -0.1451 1.0288
-0.0047 99.9696 -0.2116 -0.4824 -2.0404 0.9612 -0.2097 -1.2810 0.0257 -0.4894 -5.6947 -0.0811 -0.0451 13.0488 -2.4081 -0.1025 22.6269 3.3401 -0.5694 -3.7440 0.7136 0.1128 -6.8362 0.0677 0.0178 0.0175 -0.0100 0.6976 -10.5057 -3.8480 -0.6617 -10.5319 3.8291 -17.6011 12.5999 -11.2309 -53.4113 6.7225 -24.3599 0.0083 0.0851 -31.9861 -0.8657 -14.6178 4.4322 -15.7349 10.5887 15.5608 -60.3755 1.4967 2.5600 15.4374 12.2539 14.0204 57.5201 7.6941 26.1257 -0.0747 0.0233 38.0050 2.7704 -7.3524 -4.9484 15.4776 7.1837 -16.2773 49.6770 -3.6754 -5.5184 5.0137 -2.8632 8.0860 -0.0390 7.6781 -0.1326 -5.3355 -3.2884 0.1110 1.6634 0.2138 -1.9093 -3.2819 1.6207 -11.7017 0.0069 3.0250 -0.0641 4.2408 -2.8149 1.5281 -1.4333 -0.1491 1.0293
0.0019 99.9690 -0.1908 -0.4709 -2.0360 0.9607 -0.2117 -1.2898 0.0224 -0.4903 -5.6840 -0.0883 -0.0162 13.0503 -2.3773 -0.0946 22.6070 3.3546 -0.5899 -3.7460 0.6837 0.1215 -6.8984 0.0000 0.0162 0.0183 -0.0085 0.6959 -10.5047 -3.8455 -0.6634 -10.5304 3.8308 -17.5894 12.5865 -11.2441 -53.3662 6.7148 -24.3443 -0.0328 0.0675 -31.9591 -0.8429 -14.6332 4.4081 -15.7605 10.6054 15.5594 -60.3952 1.5082 2.5478 15.4082 12.2251 13.9834 57.5389 7.7001 26.1487 -0.0531 0.0054 37.9659 2.7688 -7.2602 -4.9117 15.4932 7.1779 -16.2831 49.6436 -3.6673 -5.5260 5.0014 -2.8631 8.1383 -0.0408 7.6886 -0.1385 -5.3409 -3.3144 0.0678 1.6649 0.2118 -1.9162 -3.2979 1.6203 -11.6998 0.0067 3.0329 -0.0606 4.2289 -2.8324 1.5226 -1.4344 -0.1572 1.0293
0.0057 99.9631 -0.1731 -0.4637 -2.0381 0.9771 -0.2145 -1.2938 0.0032 -0.4863 -5.6783 -0.0804 0.0120 13.0616 -2.3540 -0.1035 22.5910 3.3258 -0.5883 -3.7440 0.6729 0.1182 -6.9399 -0.0280 0.0136 0.0181 -0.0016 0.6914 -10.5072 -3.8380 -0.6644 -10.5311 3.8388 -17.5782 12.5407 -11.2596 -53.3387 6.7434 -24.3481 -0.0468 0.0587 -31.9347 -0.8531 -14.6869 4.4042 -15.7773 10.6022 15.5633 -60.3704 1.4901 2.5628 15.3960 12.2117 13.9430 57.5260 7.7111 26.1418 -0.0373 -0.0110 37.9794 2.7546 -7.2544 -4.9035 15.5036 7.1760 -16.2926 49.6538 -3.6555 -5.5337 4.9976 -2.8752 8.1887 -0.0385 7.7285 -0.1406 -5.3465 -3.3390 0.0176 1.6665 0.2049 -1.9205 -3.3170 1.6324 -11.7267 0.0101 3.0290 -0.0468 4.2222 -2.8555 1.5242 -1.4345 -0.1657 1.0354
0.0237 99.9530 -0.1451 -0.4591 -2.0479 0.9973 -0.2223 -1.2948 -0.0040 -0.4854 -5.6790 -0.0720 0.0354 13.0806 -2.3672 -0.1197 22.5928 3.2817 -0.5681 -3.7430 0.6745 0.0992 -6.9530 -0.0161 0.0111 0.0147 0.0067 0.6874 -10.5149 -3.8296 -0.6654 -10.5353 3.8481 -17.5576 12.5133 -11.2367 -53.3075 6.7754 -24.3871 -0.0507 0.0431 -31.9195 -0.8192 -14.7484 4.4025 -15.7819 10.6108 15.5814 -60.3535 1.4778 2.5618 15.3868 12.1851 13.8994 57.5154 7.7657 26.1746 -0.0316 -0.0097 38.0460 2.7221 -7.2944 -4.9325 15.5055 7.1725 -16.2951 49.6642 -3.6442 -5.5493 4.9888 -2.8667 8.2223 -0.0369 7.7437 -0.1388 -5.3271 -3.3384 -0.0165 1.6668 0.1825 -1.9225 -3.3349 1.6704 -11.7496 0.0140 2.9925 -0.0424 4.2322 -2.8596 1.5319 -1.4339 -0.1749 1.0430
0.0312 99.9486 -0.1307 -0.4535 -2.0562 1.0212 -0.2325 -1.2990 -0.0188 -0.4790 -5.6872 -0.0684 0.0471 13.1083 -2.3836 -0.1173 22.5953 3.2450 -0.5483 -3.7361 0.6608 0.0611 -6.9651 0.0126 0.0120 0.0119 0.0068 0.6868 -10.5132 -3.8292 -0.6632 -10.5333 3.8479 -17.5628 12.5285 -11.2091 -53.2565 6.8074 -24.4639 -0.0163 0.0465 -31.9275 -0.7701 -14.8236 4.4054 -15.7845 10.6094 15.5908 -60.3611 1.4654 2.5625 15.4041 12.1579 13.8656 57.4894 7.8178 26.2253 -0.0377 0.0052 38.1062 2.7002 -7.3357 -4.9666 15.5086 7.1836 -16.3038 49.6735 -3.6407 -5.5318 4.9765 -2.8384 8.2176 -0.0324 7.7355 -0.1312 -5.3153 -3.3383 -0.0156 1.6668 0.1618 -1.9235 -3.3568 1.7038 -11.7777 0.0167 2.9661 -0.0410 4.2562 -2.8516 1.5455 -1.4331 -0.2013 1.0475
